<svg xmlns="http://www.w3.org/2000/svg" viewBox="0 0 100 100">
  <mask id="p"><rect width="100" height="100" fill="#fff"/><g fill="none" stroke="#000" stroke-width="2.4" stroke-linecap="round"><path d="M50 14 Q44 30 38 44"/><path d="M50 14 Q56 30 62 44"/></g></mask>
  <path d="M50 8 C38 14 30 26 32 38 C34 48 42 52 50 52 C58 52 66 48 68 38 C70 26 62 14 50 8 Z" mask="url(#p)"/>
  <path d="M50 52 Q48 72 50 94" fill="none" stroke="#000" stroke-width="3.5" stroke-linecap="round"/>
  <path d="M49 70 C38 60 26 62 20 68 C30 76 42 76 49 70 Z"/>
  <path d="M50 80 C60 70 72 70 80 74 C72 84 58 86 50 80 Z"/>
</svg>
